<svg version="1.2" xmlns="http://www.w3.org/2000/svg" viewBox="0 0 301 59" width="301" height="59">
	<title>Vector Smart Object-ai</title>
	<style>
		.s0 { fill: #ffffff } 
	</style>
	<g id="Artwork">
		<g id="&lt;Group&gt;">
			<g id="&lt;Group&gt;">
				<g id="&lt;Group&gt;">
					<path id="&lt;Path&gt;" class="s0" d="m12.8 24.2h42.3v10h-42.3v1.5c0 0.8 0.1 3.5 0.4 5.1 0.9 4.2 3.2 5.9 8.3 6.7 3.1 0.4 6.5 0.6 12.6 0.6 5.5 0 15.7-0.6 22.1-1.3v10.3c-7.3 0.7-16.8 1-23.6 1-9.9 0-15.5-0.5-20.2-2.1-7.1-2.3-10.9-7.8-11.4-16.2-0.2-3.2-0.4-6.8-0.4-10.3 0-3.6 0.2-7.2 0.4-10.4 0.5-8.4 4.3-13.9 11.4-16.2 4.7-1.5 10.3-2.1 20.2-2.1 6.8 0 16.3 0.4 23.6 1v10.3c-6.4-0.6-16.6-1.3-22.1-1.3-6.1 0-9.5 0.2-12.6 0.7-5.1 0.7-7.4 2.4-8.3 6.6-0.3 1.6-0.4 4.3-0.4 5.1z"/>
					<path id="&lt;Path&gt;" class="s0" d="m143.5 2.1c3.4-0.8 11.8-1.3 16.5-1.3 8 0 15.5 0.3 24.7 1.4v10.7c-9.4-1.7-16.1-2.2-25.5-2.2-3.8 0-7.2 0.1-10.3 0.5-4.4 0.5-5.8 2.5-5.8 6 0 3.5 1.4 5.5 5.8 6 3.4 0.4 7 0.5 11.1 0.5v0.1c4.8 0.1 11.7 0.5 14.8 1.3 8.7 2.1 12 8 12 15.8 0 7.8-3.3 13.8-12 15.9-3.5 0.8-11.9 1.3-16.6 1.3-9.9 0-16.7-0.3-26-1.4v-10.7c9.6 1.7 16.2 2.2 26 2.2 4.1 0 7.7-0.1 11.1-0.5 4.4-0.5 5.8-2.5 5.8-6.2 0-3.6-1.4-5.6-5.8-6.2-3.4-0.4-7-0.5-11.1-0.5-4.8-0.1-11.7-0.6-14.7-1.3-8.8-2.1-12.1-8-12.1-15.7 0-7.7 3.3-13.6 12.1-15.7z"/>
					<path id="&lt;Compound Path&gt;" fill-rule="evenodd" class="s0" d="m61.7 29.5c0-3.6 0.2-7.7 0.4-10.9 0.4-8.4 4.3-14 11.4-16.3 4.7-1.5 10.2-2 20.2-2 10 0 15.5 0.5 20.2 2 7.1 2.3 11 7.9 11.5 16.3 0.1 3.2 0.3 7.3 0.3 10.9 0 3.5-0.2 7.6-0.3 10.8-0.5 8.4-4.4 14-11.5 16.3-4.7 1.5-10.2 2.1-20.2 2.1-10 0-15.5-0.6-20.2-2.1-7.1-2.3-11-7.9-11.4-16.3-0.2-3.2-0.4-7.3-0.4-10.8zm12.5 10.5c0.4 4 2.2 6.3 6.5 7.5 2.6 0.8 7.5 1.1 13 1.1 5.5 0 10.4-0.3 13.1-1.1 4.2-1.2 6-3.5 6.4-7.5 0.4-3.9 0.4-6.7 0.4-10.5 0-3.9 0-6.7-0.4-10.5-0.4-4-2.2-6.4-6.4-7.6-2.7-0.8-7.6-1.1-13.1-1.1-5.5 0-10.4 0.3-13 1.1-4.3 1.2-6.1 3.6-6.5 7.6-0.3 3.8-0.4 6.6-0.4 10.5 0 3.8 0.1 6.6 0.4 10.5z"/>
				</g>
			</g>
			<g id="&lt;Group&gt;">
				<g id="&lt;Group&gt;">
					<g id="&lt;Group&gt;">
						<path id="&lt;Compound Path&gt;" fill-rule="evenodd" class="s0" d="m211.3 1.8c4.3-0.7 10.7-1.2 17.7-1.2 9 0 14.8 1.4 18.8 4.6 3.2 2.5 5.2 6.5 5.2 11.5 0 7.6-5.6 12.5-10.7 14v0.3c4.1 1.6 6.5 5.5 8.1 10.6 1.9 6.9 3.6 13.8 4.8 16.1h-11.7c-1-1.7-2.4-6-4.2-13.2-1.8-7.3-4.6-9.6-10.8-9.7h-5.8v22.9h-11.4zm11.4 24.7h7c7.4 0 11.9-3.4 11.9-8.9 0-6-4.8-8.6-11.5-8.6-4 0-6.3 0.3-7.4 0.6z"/>
					</g>
					<g id="&lt;Group&gt;">
						<g id="&lt;Group&gt;">
							<g id="&lt;Group&gt;">
								<path id="&lt;Compound Path&gt;" class="s0" d="m300.9 1.1v7.5l-24.8 49.1h-12.4l24.9-46.7v-0.1h-27.8v-9.8z"/>
							</g>
						</g>
					</g>
				</g>
			</g>
		</g>
	</g>
</svg>